<?xml version="1.0" encoding="utf-8"?>
<!-- Generator: Adobe Illustrator 19.0.0, SVG Export Plug-In . SVG Version: 6.00 Build 0)  -->
<svg version="1.1" id="Layer_1" xmlns="http://www.w3.org/2000/svg" xmlns:xlink="http://www.w3.org/1999/xlink" x="0px" y="0px"
	 viewBox="207.5 44.8 48 33" style="enable-background:new 207.5 44.8 48 33;" xml:space="preserve">
<style type="text/css">
	.st0{fill:#7CB342;}
</style>
<g id="icons">
	<g id="Layer_1_1_">
		<g id="Layer_11">
		</g>
	</g>
	<g id="Layer_12">
		<g id="Layer_13">
			<g>
				<path class="st0" d="M240.6,59c0-2.2,0-4.4,0-6.5c0-1.5,1.1-2.6,2.6-2.6c1.4,0,2.5,1.1,2.6,2.5c0,0.1,0,0.3,0,0.4
					c0,3.8,0,7.7,0,11.5c0,0.8,0.3,1.1,1.1,1.1c1.3,0,2.7,0,4,0c1.5,0,2.7,1.2,2.6,2.7c0,1.3-1.1,2.4-2.4,2.5c-1.9,0-3.8,0-5.7,0
					c-2.4-0.1-4.5-2.1-4.8-4.5c0-0.3-0.1-0.6-0.1-0.9C240.6,63.1,240.6,61,240.6,59"/>
				<path class="st0" d="M238,64.2c0,1.2,0,2.5,0,3.7c0,3-2.3,5.2-5.2,5.2c-1.7,0-3.5,0-5.2,0c-1.2,0-2.2-0.9-2.4-2
					c-0.2-1.2,0.3-2.4,1.4-2.8c0.4-0.2,0.8-0.2,1.2-0.3c1.3,0,2.6,0,4,0c0.8,0,1.1-0.3,1.1-1.1c0-2.2,0-4.4,0-6.6
					c0-1.3,0.8-2.3,2-2.6c1.6-0.4,3.1,0.8,3.1,2.4C238,61.5,238,62.8,238,64.2L238,64.2L238,64.2z"/>
				<path class="st0" d="M230.2,56.3c0,2.2,0,4.3,0,6.5c0,1.9-2.1,3.1-3.8,2.2c-0.9-0.5-1.3-1.2-1.4-2.2c0-0.2,0-0.4,0-0.7
					c0-4.1,0-8.2,0-12.3c0-1.2,0.7-2.2,1.8-2.6c1.7-0.5,3.3,0.7,3.3,2.4C230.2,52,230.2,54.1,230.2,56.3"/>
				<path class="st0" d="M238,52.4c0,1.4-1.1,2.6-2.6,2.6c-1.4,0-2.6-1.1-2.6-2.6c0-1.4,1.1-2.6,2.6-2.6C236.8,49.8,238,51,238,52.4
					"/>
				<path class="st0" d="M243.2,73.1c0,1.4-1.2,2.6-2.6,2.6c-1.4,0-2.6-1.2-2.6-2.6c0-1.4,1.1-2.6,2.6-2.6
					C242,70.6,243.2,71.7,243.2,73.1"/>
				<path class="st0" d="M222.4,54.9c0-1.6-1.6-2.7-3.1-2.4c-1.2,0.3-2,1.3-2,2.6c0,2.2,0,4.4,0,6.7c0,0.7-0.3,1.1-1.1,1.1
					c-1.4,0-2.8,0-4.1,0c-0.2,0-0.3,0-0.5,0c-1.2,0.2-2.2,1.2-2.2,2.5c0,1,0.5,1.8,1.3,2.2c0,0,0,0,0.1,0c0.1,0,0.2,0.1,0.2,0.1
					c0.3,0.1,0.7,0.2,1,0.2c0.7,0,1.3,0,2,0c1.2,0,2.5,0,3.7-0.1c2.4-0.2,4.5-2.4,4.6-4.8C222.5,60.3,222.5,57.6,222.4,54.9"/>
			</g>
		</g>
	</g>
</g>
<g id="Isolation_Mode">
</g>
</svg>
